<svg width="119" height="42" viewBox="0 0 119 42" fill="none" xmlns="http://www.w3.org/2000/svg">
<path d="M22.227 3.81L22.657 1.19L11.707 1L9.64698 1.04C9.64698 1.04 7.03698 1.09 5.09698 4.59C4.97698 4.82 4.84698 5.06 4.72698 5.32L4.65698 5.85L2.06698 24.85C2.06698 24.85 1.26698 29.27 6.23698 30.72L7.58698 30.94H25.917C26.5606 30.84 27.1671 30.5745 27.6772 30.1695C28.1874 29.7646 28.5835 29.2341 28.827 28.63L30.827 13.63L38.207 30.51L43.777 30.56L47.357 7.3H62.217L59.527 24.94L48.527 24.75L48.327 26.64V26.78V26.96L48.217 27.84L48.157 28.28V28.41L47.807 30.94H61.967C62.7861 30.7408 63.5359 30.3231 64.1364 29.7314C64.7369 29.1397 65.1657 28.3961 65.377 27.58L68.247 5.04C68.247 5.04 67.947 2.15 64.327 1.33L44.947 1.38C44.0924 1.52258 43.2917 1.89195 42.6286 2.44955C41.9654 3.00716 41.4641 3.73255 41.177 4.55L39.067 17.55L31.837 1.24L26.837 1.38L23.607 24.94H8.34698L10.707 7.78H21.527L21.937 5.36V5.3" fill="#C93536"/>
<path d="M22.227 3.81L22.657 1.19L11.707 1L9.64698 1.04C9.64698 1.04 7.03698 1.09 5.09698 4.59C4.97698 4.82 4.84698 5.06 4.72698 5.32L4.65698 5.85L2.06698 24.85C2.06698 24.85 1.26698 29.27 6.23698 30.72L7.58698 30.94H25.917C26.5606 30.84 27.1671 30.5745 27.6772 30.1695C28.1874 29.7646 28.5835 29.2341 28.827 28.63L30.827 13.63L38.207 30.51L43.777 30.56L47.357 7.3H62.217L59.527 24.94L48.527 24.75L48.327 26.64V26.78V26.96L48.217 27.84L48.157 28.28V28.41L47.807 30.94H61.967C62.7861 30.7408 63.5359 30.3231 64.1364 29.7314C64.7369 29.1397 65.1657 28.3961 65.377 27.58L68.247 5.04C68.247 5.04 67.947 2.15 64.327 1.33L44.947 1.38C44.0924 1.52258 43.2917 1.89195 42.6286 2.44955C41.9654 3.00716 41.4641 3.73255 41.177 4.55L39.067 17.55L31.837 1.24L26.837 1.38L23.607 24.94H8.34698L10.707 7.78H21.527L21.937 5.36V5.3" stroke="#231F20" stroke-width="0.11"/>
<path d="M22.5276 4.54999H11.2176C11.2176 4.54999 8.7076 4.10999 7.3076 7.17999L4.8976 24.88C4.76935 25.164 4.71177 25.4748 4.72979 25.7859C4.74781 26.097 4.84089 26.3991 5.00106 26.6664C5.16124 26.9337 5.38376 27.1582 5.6496 27.3208C5.91543 27.4834 6.21668 27.5792 6.5276 27.6L24.3676 27.83C24.9289 27.7116 25.433 27.4053 25.7967 26.9617C26.1603 26.518 26.3617 25.9636 26.3676 25.39L29.1676 4.61999H29.7976L40.1376 26.8H40.8476L43.8476 7.14999C43.8476 7.14999 44.1176 4.74999 45.9576 4.38999H62.9576C63.2122 4.38272 63.4653 4.43145 63.6991 4.53273C63.9328 4.63401 64.1414 4.78537 64.3102 4.97612C64.4791 5.16688 64.6039 5.39237 64.676 5.63667C64.7482 5.88098 64.7658 6.13814 64.7276 6.38999L62.3676 24.78C62.3676 24.78 62.4376 27.38 60.6276 27.54H47.8376" stroke="white" stroke-width="1.13"/>
<path d="M69.9062 27.67V18.8798H71.6957V26.1768H76.1452V27.67H69.9062ZM77.3724 27.67V18.8073H79.1619V27.67H77.3724ZM80.8486 27.67V18.8073H83.5268L85.1349 24.8528L86.7249 18.8073H89.4091V27.67H87.7466V20.6935L85.9873 27.67H84.2643L82.5111 20.6935V27.67H80.8486ZM91.1321 27.67V18.8073H92.9215V27.67H91.1321ZM96.6274 27.67V20.3066H93.9976V18.8073H101.041V20.3066H98.4169V27.67H96.6274ZM102.201 27.67V18.8073H108.773V20.3066H103.991V22.2714H108.44V23.7646H103.991V26.1768H108.942V27.67H102.201ZM110.454 18.8073H113.724C114.462 18.8073 115.024 18.8637 115.411 18.9766C115.931 19.1297 116.376 19.4018 116.747 19.7927C117.118 20.1837 117.4 20.6633 117.593 21.2315C117.787 21.7958 117.884 22.4931 117.884 23.3233C117.884 24.0528 117.793 24.6815 117.611 25.2095C117.39 25.8544 117.073 26.3763 116.662 26.7753C116.352 27.0776 115.933 27.3134 115.405 27.4826C115.01 27.6076 114.482 27.67 113.821 27.67H110.454V18.8073ZM112.243 20.3066V26.1768H113.579C114.079 26.1768 114.44 26.1486 114.661 26.0922C114.951 26.0196 115.191 25.8967 115.381 25.7234C115.574 25.5501 115.731 25.2659 115.852 24.871C115.973 24.472 116.034 23.9299 116.034 23.2447C116.034 22.5596 115.973 22.0336 115.852 21.6668C115.731 21.3001 115.562 21.0139 115.344 20.8084C115.127 20.6028 114.851 20.4638 114.516 20.3912C114.266 20.3348 113.777 20.3066 113.047 20.3066H112.243Z" fill="white"/>
<path d="M4.38288 38.4482L5.40086 38.7709C5.24479 39.3385 4.98468 39.7605 4.62053 40.0372C4.25874 40.3115 3.79882 40.4487 3.24076 40.4487C2.55029 40.4487 1.98278 40.2134 1.53823 39.7428C1.09367 39.2699 0.871398 38.6243 0.871398 37.8062C0.871398 36.9407 1.09486 36.2692 1.54177 35.7915C1.98869 35.3115 2.5763 35.0715 3.30461 35.0715C3.9407 35.0715 4.45737 35.2595 4.85463 35.6354C5.09109 35.8577 5.26844 36.1769 5.38667 36.5931L4.34742 36.8414C4.28593 36.5718 4.15706 36.359 3.9608 36.203C3.7669 36.0469 3.53043 35.9689 3.25141 35.9689C2.86597 35.9689 2.55266 36.1072 2.31146 36.3838C2.07263 36.6605 1.95322 37.1086 1.95322 37.7281C1.95322 38.3855 2.07145 38.8537 2.30792 39.1327C2.54438 39.4118 2.85178 39.5513 3.23012 39.5513C3.50915 39.5513 3.74916 39.4626 3.95016 39.2853C4.15115 39.1079 4.29539 38.8289 4.38288 38.4482ZM6.09252 37.792C6.09252 37.2623 6.17173 36.8178 6.33016 36.4583C6.4484 36.1935 6.60919 35.9558 6.81255 35.7454C7.01827 35.5349 7.24291 35.3789 7.48647 35.2772C7.81043 35.14 8.18404 35.0715 8.60731 35.0715C9.37345 35.0715 9.98589 35.3091 10.4446 35.7844C10.9057 36.2597 11.1363 36.9206 11.1363 37.7672C11.1363 38.6066 10.9081 39.264 10.4517 39.7393C9.99535 40.2122 9.38527 40.4487 8.6215 40.4487C7.84826 40.4487 7.23345 40.2134 6.77708 39.7428C6.3207 39.2699 6.09252 38.6196 6.09252 37.792ZM7.17434 37.7565C7.17434 38.3453 7.31031 38.7922 7.58224 39.0973C7.85417 39.3999 8.19941 39.5513 8.61795 39.5513C9.03649 39.5513 9.37936 39.4011 9.64657 39.1008C9.91614 38.7981 10.0509 38.3453 10.0509 37.7423C10.0509 37.1464 9.91968 36.7019 9.65721 36.4087C9.3971 36.1155 9.05068 35.9689 8.61795 35.9689C8.18522 35.9689 7.83644 36.1178 7.5716 36.4158C7.30676 36.7114 7.17434 37.1583 7.17434 37.7565ZM11.945 40.36V35.1601H13.5163L14.4598 38.7071L15.3926 35.1601H16.9675V40.36H15.9921V36.2668L14.9599 40.36H13.949L12.9204 36.2668V40.36H11.945ZM18.0103 40.36V35.1601H19.6951C20.3335 35.1601 20.7497 35.1862 20.9436 35.2382C21.2416 35.3162 21.491 35.4865 21.692 35.7489C21.893 36.0091 21.9935 36.346 21.9935 36.7598C21.9935 37.0791 21.9356 37.3474 21.8197 37.565C21.7039 37.7825 21.5561 37.954 21.3763 38.0793C21.199 38.2023 21.0181 38.2838 20.8337 38.324C20.583 38.3737 20.22 38.3985 19.7448 38.3985H19.0602V40.36H18.0103ZM19.0602 36.0398V37.5153H19.6348C20.0486 37.5153 20.3253 37.4881 20.4648 37.4337C20.6043 37.3794 20.7131 37.2942 20.7911 37.1784C20.8715 37.0625 20.9117 36.9277 20.9117 36.774C20.9117 36.5848 20.8561 36.4288 20.745 36.3058C20.6339 36.1829 20.4932 36.106 20.3229 36.0753C20.1976 36.0516 19.9457 36.0398 19.5674 36.0398H19.0602ZM22.8483 35.1601H23.8982V37.9764C23.8982 38.4233 23.9112 38.713 23.9373 38.8454C23.9822 39.0583 24.0886 39.2297 24.2565 39.3597C24.4267 39.4874 24.6585 39.5513 24.9517 39.5513C25.2496 39.5513 25.4743 39.491 25.6256 39.3704C25.7769 39.2474 25.868 39.0973 25.8987 38.9199C25.9295 38.7426 25.9448 38.4482 25.9448 38.0367V35.1601H26.9947V37.8913C26.9947 38.5156 26.9664 38.9566 26.9096 39.2143C26.8529 39.4721 26.7476 39.6896 26.5939 39.867C26.4426 40.0443 26.2392 40.1862 25.9838 40.2926C25.7285 40.3966 25.3951 40.4487 24.9836 40.4487C24.487 40.4487 24.1099 40.3919 23.8521 40.2784C23.5967 40.1625 23.3946 40.0136 23.2456 39.8315C23.0966 39.647 22.9985 39.4543 22.9512 39.2533C22.8826 38.9554 22.8483 38.5156 22.8483 37.9339V35.1601ZM29.2754 40.36V36.0398H27.7325V35.1601H31.8647V36.0398H30.3253V40.36H29.2754ZM32.5457 40.36V35.1601H36.4013V36.0398H33.5956V37.1926H36.2062V38.0687H33.5956V39.4839H36.5006V40.36H32.5457ZM37.3944 40.36V35.1601H39.6042C40.1598 35.1601 40.563 35.2074 40.8137 35.302C41.0667 35.3942 41.2689 35.5598 41.4202 35.7986C41.5715 36.0374 41.6472 36.3105 41.6472 36.6179C41.6472 37.0081 41.5325 37.3309 41.3031 37.5863C41.0738 37.8393 40.7309 37.9989 40.2745 38.0651C40.5015 38.1975 40.6883 38.3429 40.8349 38.5014C40.9839 38.6598 41.1837 38.9412 41.4344 39.3456L42.0693 40.36H40.8137L40.0546 39.2285C39.785 38.8242 39.6006 38.57 39.5013 38.4659C39.402 38.3595 39.2968 38.2874 39.1856 38.2495C39.0745 38.2093 38.8983 38.1892 38.6571 38.1892H38.4443V40.36H37.3944ZM38.4443 37.3593H39.2211C39.7248 37.3593 40.0392 37.338 40.1646 37.2954C40.2899 37.2529 40.388 37.1795 40.459 37.0755C40.5299 36.9715 40.5654 36.8414 40.5654 36.6853C40.5654 36.5104 40.5181 36.3697 40.4235 36.2633C40.3313 36.1545 40.2 36.0859 40.0298 36.0575C39.9447 36.0457 39.6893 36.0398 39.2636 36.0398H38.4443V37.3593ZM44.6728 40.36V35.1601H45.6943L47.8225 38.6326V35.1601H48.7979V40.36H47.7444L45.6482 36.9691V40.36H44.6728ZM49.9116 40.36V35.1601H53.7672V36.0398H50.9615V37.1926H53.5721V38.0687H50.9615V39.4839H53.8665V40.36H49.9116ZM55.9272 40.36V36.0398H54.3843V35.1601H58.5165V36.0398H56.9771V40.36H55.9272ZM59.9353 40.36L58.6939 35.1601H59.7686L60.5525 38.7319L61.5031 35.1601H62.7516L63.6632 38.7922L64.4612 35.1601H65.5182L64.2555 40.36H63.1418L62.106 36.4725L61.0739 40.36H59.9353ZM65.8445 37.792C65.8445 37.2623 65.9237 36.8178 66.0822 36.4583C66.2004 36.1935 66.3612 35.9558 66.5646 35.7454C66.7703 35.5349 66.9949 35.3789 67.2385 35.2772C67.5624 35.14 67.9361 35.0715 68.3593 35.0715C69.1255 35.0715 69.7379 35.3091 70.1966 35.7844C70.6578 36.2597 70.8883 36.9206 70.8883 37.7672C70.8883 38.6066 70.6601 39.264 70.2037 39.7393C69.7474 40.2122 69.1373 40.4487 68.3735 40.4487C67.6003 40.4487 66.9855 40.2134 66.5291 39.7428C66.0727 39.2699 65.8445 38.6196 65.8445 37.792ZM66.9264 37.7565C66.9264 38.3453 67.0623 38.7922 67.3343 39.0973C67.6062 39.3999 67.9514 39.5513 68.37 39.5513C68.7885 39.5513 69.1314 39.4011 69.3986 39.1008C69.6682 38.7981 69.8029 38.3453 69.8029 37.7423C69.8029 37.1464 69.6717 36.7019 69.4092 36.4087C69.1491 36.1155 68.8027 35.9689 68.37 35.9689C67.9372 35.9689 67.5885 36.1178 67.3236 36.4158C67.0588 36.7114 66.9264 37.1583 66.9264 37.7565ZM71.7147 40.36V35.1601H73.9245C74.4802 35.1601 74.8834 35.2074 75.134 35.302C75.387 35.3942 75.5892 35.5598 75.7405 35.7986C75.8919 36.0374 75.9675 36.3105 75.9675 36.6179C75.9675 37.0081 75.8529 37.3309 75.6235 37.5863C75.3941 37.8393 75.0512 37.9989 74.5949 38.0651C74.8219 38.1975 75.0087 38.3429 75.1553 38.5014C75.3043 38.6598 75.5041 38.9412 75.7547 39.3456L76.3896 40.36H75.134L74.375 39.2285C74.1054 38.8242 73.921 38.57 73.8216 38.4659C73.7223 38.3595 73.6171 38.2874 73.506 38.2495C73.3948 38.2093 73.2187 38.1892 72.9775 38.1892H72.7646V40.36H71.7147ZM72.7646 37.3593H73.5414C74.0451 37.3593 74.3596 37.338 74.4849 37.2954C74.6102 37.2529 74.7084 37.1795 74.7793 37.0755C74.8503 36.9715 74.8857 36.8414 74.8857 36.6853C74.8857 36.5104 74.8384 36.3697 74.7438 36.2633C74.6516 36.1545 74.5204 36.0859 74.3501 36.0575C74.265 36.0457 74.0096 36.0398 73.584 36.0398H72.7646V37.3593ZM76.9749 40.36V35.1601H78.0248V37.4692L80.1459 35.1601H81.5575L79.5996 37.1855L81.664 40.36H80.3055L78.8761 37.9197L78.0248 38.7887V40.36H76.9749ZM83.9659 38.6681L84.9875 38.5688C85.0489 38.9116 85.1731 39.1635 85.3599 39.3243C85.5491 39.4851 85.8033 39.5655 86.1225 39.5655C86.4606 39.5655 86.7148 39.4945 86.8851 39.3526C87.0577 39.2084 87.144 39.0405 87.144 38.849C87.144 38.726 87.1073 38.622 87.034 38.5369C86.9631 38.4494 86.8378 38.3737 86.6581 38.3098C86.5351 38.2673 86.2549 38.1916 85.8174 38.0828C85.2547 37.9433 84.8598 37.7719 84.6328 37.5685C84.3135 37.2824 84.1539 36.9336 84.1539 36.5222C84.1539 36.2573 84.2284 36.0102 84.3774 35.7809C84.5287 35.5491 84.7451 35.373 85.0265 35.2524C85.3102 35.1318 85.6519 35.0715 86.0515 35.0715C86.7042 35.0715 87.1948 35.2145 87.5235 35.5007C87.8546 35.7868 88.0284 36.1687 88.0449 36.6463L86.995 36.6924C86.9501 36.4252 86.8531 36.2337 86.7042 36.1178C86.5576 35.9996 86.3365 35.9405 86.0409 35.9405C85.7359 35.9405 85.497 36.0031 85.3244 36.1285C85.2133 36.2089 85.1577 36.3165 85.1577 36.4512C85.1577 36.5742 85.2097 36.6794 85.3138 36.7669C85.4462 36.8781 85.7678 36.9939 86.2785 37.1145C86.7893 37.2351 87.1665 37.3604 87.41 37.4905C87.6559 37.6182 87.8475 37.7944 87.9846 38.019C88.1241 38.2413 88.1939 38.5168 88.1939 38.8454C88.1939 39.1434 88.1111 39.4224 87.9456 39.6825C87.7801 39.9426 87.546 40.1365 87.2433 40.2642C86.9406 40.3895 86.5635 40.4522 86.1118 40.4522C85.4545 40.4522 84.9496 40.3009 84.5973 39.9982C84.245 39.6932 84.0345 39.2498 83.9659 38.6681ZM90.4427 40.36V38.1715L88.538 35.1601H89.7688L90.9925 37.2174L92.1913 35.1601H93.4008L91.489 38.1786V40.36H90.4427ZM93.6562 38.6681L94.6777 38.5688C94.7392 38.9116 94.8634 39.1635 95.0502 39.3243C95.2393 39.4851 95.4935 39.5655 95.8128 39.5655C96.1509 39.5655 96.4051 39.4945 96.5754 39.3526C96.748 39.2084 96.8343 39.0405 96.8343 38.849C96.8343 38.726 96.7976 38.622 96.7243 38.5369C96.6534 38.4494 96.5281 38.3737 96.3484 38.3098C96.2254 38.2673 95.9452 38.1916 95.5077 38.0828C94.9449 37.9433 94.55 37.7719 94.323 37.5685C94.0038 37.2824 93.8442 36.9336 93.8442 36.5222C93.8442 36.2573 93.9187 36.0102 94.0677 35.7809C94.219 35.5491 94.4354 35.373 94.7168 35.2524C95.0005 35.1318 95.3422 35.0715 95.7418 35.0715C96.3945 35.0715 96.8851 35.2145 97.2138 35.5007C97.5449 35.7868 97.7187 36.1687 97.7352 36.6463L96.6853 36.6924C96.6404 36.4252 96.5434 36.2337 96.3945 36.1178C96.2479 35.9996 96.0268 35.9405 95.7312 35.9405C95.4261 35.9405 95.1873 36.0031 95.0147 36.1285C94.9036 36.2089 94.848 36.3165 94.848 36.4512C94.848 36.5742 94.9 36.6794 95.0041 36.7669C95.1365 36.8781 95.4581 36.9939 95.9688 37.1145C96.4796 37.2351 96.8567 37.3604 97.1003 37.4905C97.3462 37.6182 97.5378 37.7944 97.6749 38.019C97.8144 38.2413 97.8842 38.5168 97.8842 38.8454C97.8842 39.1434 97.8014 39.4224 97.6359 39.6825C97.4704 39.9426 97.2363 40.1365 96.9336 40.2642C96.6309 40.3895 96.2538 40.4522 95.8021 40.4522C95.1448 40.4522 94.6399 40.3009 94.2876 39.9982C93.9352 39.6932 93.7248 39.2498 93.6562 38.6681ZM99.9379 40.36V36.0398H98.395V35.1601H102.527V36.0398H100.988V40.36H99.9379ZM103.208 40.36V35.1601H107.064V36.0398H104.258V37.1926H106.869V38.0687H104.258V39.4839H107.163V40.36H103.208ZM108.039 40.36V35.1601H109.61L110.554 38.7071L111.487 35.1601H113.062V40.36H112.086V36.2668L111.054 40.36H110.043L109.015 36.2668V40.36H108.039ZM113.838 38.6681L114.86 38.5688C114.921 38.9116 115.046 39.1635 115.232 39.3243C115.422 39.4851 115.676 39.5655 115.995 39.5655C116.333 39.5655 116.587 39.4945 116.758 39.3526C116.93 39.2084 117.016 39.0405 117.016 38.849C117.016 38.726 116.98 38.622 116.907 38.5369C116.836 38.4494 116.71 38.3737 116.531 38.3098C116.408 38.2673 116.127 38.1916 115.69 38.0828C115.127 37.9433 114.732 37.7719 114.505 37.5685C114.186 37.2824 114.026 36.9336 114.026 36.5222C114.026 36.2573 114.101 36.0102 114.25 35.7809C114.401 35.5491 114.618 35.373 114.899 35.2524C115.183 35.1318 115.524 35.0715 115.924 35.0715C116.577 35.0715 117.067 35.2145 117.396 35.5007C117.727 35.7868 117.901 36.1687 117.917 36.6463L116.867 36.6924C116.823 36.4252 116.726 36.2337 116.577 36.1178C116.43 35.9996 116.209 35.9405 115.913 35.9405C115.608 35.9405 115.369 36.0031 115.197 36.1285C115.086 36.2089 115.03 36.3165 115.03 36.4512C115.03 36.5742 115.082 36.6794 115.186 36.7669C115.319 36.8781 115.64 36.9939 116.151 37.1145C116.662 37.2351 117.039 37.3604 117.282 37.4905C117.528 37.6182 117.72 37.7944 117.857 38.019C117.997 38.2413 118.066 38.5168 118.066 38.8454C118.066 39.1434 117.984 39.4224 117.818 39.6825C117.653 39.9426 117.418 40.1365 117.116 40.2642C116.813 40.3895 116.436 40.4522 115.984 40.4522C115.327 40.4522 114.822 40.3009 114.47 39.9982C114.117 39.6932 113.907 39.2498 113.838 38.6681Z" fill="white"/>
</svg>
