<svg width="19" height="19" viewBox="0 0 19 19" fill="none" xmlns="http://www.w3.org/2000/svg">
<g clip-path="url(#clip0_952_240)">
<path d="M9.42971 9.52948C9.42971 8.72562 9.22857 6.18323 9.28149 5.75995C8.96341 4.80764 8.14648 5.36316 7.9043 5.75995V9.76313C7.9043 10.1335 8.27363 11.186 9.02845 11.3811H12.7979V9.52948H12.2028H9.42971Z" fill="#313193"/>
<path d="M7.28588 3.86756C7.19867 4.14514 6.94262 4.32289 6.66615 4.32289C6.60158 4.32289 6.53627 4.31324 6.4717 4.29283L5.97555 4.13734C4.10486 5.31148 2.86133 7.39258 2.86133 9.76387C2.86133 13.4306 5.83379 16.4031 9.50057 16.4031C13.1673 16.4031 16.1398 13.4306 16.1398 9.76387C16.1398 6.09709 13.167 3.125 9.5002 3.125C8.72609 3.125 7.98316 3.25785 7.29219 3.50166C7.3241 3.61744 7.32484 3.74398 7.28588 3.86756ZM7.93604 5.95311C7.93604 5.59426 8.22697 5.30332 8.58582 5.30332C8.94467 5.30332 9.23561 5.59426 9.23561 5.95311V9.48889C9.23561 9.78057 9.47273 10.0177 9.76441 10.0177H12.1216C12.4805 10.0177 12.7714 10.3086 12.7714 10.6675C12.7714 11.0263 12.4805 11.3173 12.1216 11.3173H9.76441C8.75615 11.3173 7.93604 10.4971 7.93604 9.48889V5.95311Z" fill="#D6D6E5"/>
<path d="M16.0307 3.23305C14.2862 1.48891 11.9669 0.528151 9.49982 0.528151C8.1535 0.528151 6.83611 0.819088 5.62969 1.3761L5.82117 0.886627C5.9518 0.552272 5.78666 0.175612 5.45268 0.0449868C5.11869 -0.0856382 4.74166 0.0794986 4.61104 0.413483L3.80984 2.46303C3.72041 2.69163 3.73006 2.94954 3.83619 3.17108C3.94232 3.39225 4.13752 3.56147 4.37168 3.63495L5.97518 4.13778C6.38598 3.87987 6.82721 3.66575 7.29182 3.50173C7.23504 3.29577 7.07881 3.1221 6.86023 3.05344L5.82377 2.72837C6.95301 2.13721 8.21064 1.82772 9.49982 1.82772C11.6199 1.82772 13.6127 2.6534 15.1119 4.15225C16.6111 5.65147 17.4364 7.64424 17.4364 9.7643C17.4364 11.8844 16.6107 13.8775 15.1119 15.3764C13.6127 16.8752 11.6199 17.7009 9.49982 17.7009C7.37977 17.7009 5.38662 16.8752 3.88777 15.3764C2.38855 13.8771 1.56324 11.8844 1.56324 9.7643C1.56324 8.50333 1.8501 7.29801 2.41564 6.18176C2.57781 5.86188 2.44979 5.47075 2.1299 5.30858C1.81002 5.14641 1.41889 5.27444 1.25672 5.59432C0.597656 6.89426 0.263672 8.297 0.263672 9.76393C0.263672 12.231 1.22443 14.5503 2.96895 16.2948C4.71346 18.0393 7.03279 19.0001 9.49982 19.0001C11.9669 19.0001 14.2862 18.0393 16.0307 16.2948C17.7752 14.5503 18.736 12.231 18.736 9.76393C18.736 7.2969 17.7752 4.97756 16.0307 3.23305Z" fill="#313193"/>
</g>
<defs>
<clipPath id="clip0_952_240">
<rect width="19" height="19" fill="white"/>
</clipPath>
</defs>
</svg>
