<svg width="24" height="23" viewBox="0 0 24 23" fill="none" xmlns="http://www.w3.org/2000/svg">
<g id="Group 1261152644">
<path id="Vector" d="M4.25573 20.3774C4.05051 20.3774 3.88477 20.2115 3.88477 20.0064V18.2179C3.88477 18.0128 4.05051 17.8469 4.25573 17.8469C4.46078 17.8469 4.6267 18.0128 4.6267 18.2179V20.0064C4.6267 20.2111 4.46042 20.3774 4.25573 20.3774Z" fill="white"/>
<path id="Vector_2" d="M12.0657 20.923H0.370969C0.16574 20.923 0 20.7572 0 20.552V16.9187C0 13.5722 2.05228 10.5782 5.10644 9.4693C5.23287 9.42293 5.37343 9.44938 5.47432 9.5365C6.31679 10.258 7.37971 10.6557 8.4678 10.6557C9.56096 10.6557 10.6271 10.2558 11.47 9.52908C11.5716 9.44195 11.7134 9.4155 11.8391 9.46151C12.6278 9.74843 13.3627 10.1658 14.0233 10.7025C14.1138 10.7755 14.1647 10.8872 14.1602 11.0037C14.1562 11.1198 14.0979 11.2278 14.0026 11.2943L13.9577 11.3258L13.7537 11.0349L13.5559 11.2787C13.0147 10.8391 12.4189 10.4884 11.7819 10.2339C10.8334 10.986 9.66529 11.398 8.4678 11.398C7.27573 11.398 6.11102 10.9889 5.16386 10.2417C2.51038 11.2993 0.741937 13.9555 0.741937 16.9187V20.181H12.0657V20.923Z" fill="white"/>
<path id="Vector_3" d="M8.46825 11.3977C5.45068 11.3977 2.99609 8.84094 2.99609 5.69893C2.99609 2.55675 5.45068 0 8.46825 0C11.4856 0 13.9408 2.55639 13.9408 5.69839C13.9408 8.84058 11.4856 11.3977 8.46825 11.3977ZM8.46825 0.741937C5.85987 0.741937 3.73803 2.96558 3.73803 5.69839C3.73803 8.43175 5.85987 10.6554 8.46825 10.6554C11.0764 10.6554 13.1988 8.43175 13.1988 5.69839C13.1988 2.96558 11.0764 0.741937 8.46825 0.741937Z" fill="white"/>
<g id="Group">
<path id="Vector_4" d="M16.5506 19.068C16.3959 19.068 16.2405 19.0541 16.0858 19.0255C15.4051 18.899 14.8104 18.5065 14.4105 17.9193C14.0129 17.3335 13.8618 16.6316 13.9854 15.9438C14.1096 15.2545 14.4958 14.6517 15.0727 14.2458C15.6518 13.839 16.3463 13.6857 17.0277 13.8107C17.7088 13.9373 18.3031 14.33 18.7022 14.9173L18.7053 14.9214C19.0989 15.5172 19.2487 16.2177 19.1278 16.8924C19.0034 17.5813 18.6178 18.1841 18.0405 18.59C17.5927 18.9045 17.0763 19.068 16.5506 19.068ZM16.5637 14.5097C16.1889 14.5097 15.8203 14.6269 15.4997 14.8528C15.0834 15.1451 14.8052 15.5791 14.7163 16.0751C14.6271 16.5707 14.7369 17.0775 15.0249 17.5023C15.312 17.9243 15.7371 18.206 16.2217 18.2962C16.7039 18.3851 17.1991 18.2746 17.6139 17.983C18.0302 17.6907 18.3084 17.2567 18.3973 16.7611C18.4844 16.2754 18.3743 15.7679 18.0872 15.3321C17.8008 14.9111 17.3764 14.6298 16.8923 14.5401C16.7825 14.52 16.6731 14.5097 16.5637 14.5097Z" fill="white"/>
<path id="Vector_5" d="M16.6439 22.9999C16.5968 22.9999 16.549 22.9955 16.5015 22.9868L14.3271 22.584C13.9118 22.5068 13.6453 22.1181 13.7207 21.6989L13.8942 20.7329C13.8701 20.717 13.8471 20.7007 13.8257 20.6844L13.7978 20.6661L12.9954 21.2303C12.8503 21.3414 12.6478 21.3914 12.4513 21.3584C12.2482 21.3253 12.0658 21.2084 11.9501 21.0378L10.697 19.1949C10.5875 19.0462 10.5408 18.848 10.5738 18.6484C10.6067 18.447 10.7207 18.2648 10.8868 18.1483L11.6722 17.5815C11.6659 17.5511 11.6606 17.5221 11.6559 17.4951C11.6532 17.4814 11.651 17.4672 11.6488 17.4527L10.7006 17.277C10.5062 17.2406 10.3314 17.1242 10.2217 16.9568C10.109 16.7847 10.0729 16.5791 10.1193 16.3777L10.5133 14.1854C10.5501 13.9805 10.6609 13.805 10.8263 13.6905C10.9908 13.5766 11.1918 13.5346 11.3929 13.5717L12.3341 13.7465C12.3487 13.7231 12.364 13.7008 12.3792 13.68L12.4025 13.6422L11.8428 12.8191C11.7338 12.6711 11.687 12.4733 11.7193 12.2737C11.7523 12.0722 11.8662 11.8898 12.0319 11.7728L13.8464 10.4974C13.9918 10.3869 14.1947 10.338 14.3907 10.3695C14.5936 10.4025 14.7762 10.5194 14.8919 10.69L15.4487 11.5087C15.459 11.5062 15.4694 11.5033 15.4795 11.5006C15.4917 11.4969 15.5043 11.4939 15.5172 11.4917C15.5302 11.4892 15.5436 11.4868 15.557 11.485L15.7309 10.5172C15.7684 10.3116 15.8793 10.1366 16.0448 10.0219C16.2088 9.90837 16.4095 9.86689 16.6109 9.90367L18.7748 10.3047C19.1903 10.3817 19.4566 10.7706 19.3812 11.1897L19.2073 12.1557C19.2318 12.1717 19.2548 12.188 19.2763 12.2043L19.304 12.2226L20.1065 11.6583C20.2519 11.5477 20.4548 11.4984 20.6508 11.5303C20.8537 11.5632 21.0363 11.6801 21.152 11.8509L22.3953 13.6931C22.5037 13.84 22.5504 14.0378 22.5181 14.2372C22.4852 14.4386 22.3712 14.6212 22.2055 14.738L21.3953 15.3072C21.3985 15.322 21.402 15.3365 21.4056 15.3501C21.409 15.362 21.4119 15.3738 21.4137 15.3865C21.4165 15.401 21.419 15.4155 21.4212 15.4303L22.3691 15.606C22.7489 15.6767 23.015 16.0283 23.0023 16.4413C23.0016 16.4594 22.9998 16.4775 22.9963 16.4954L22.5991 18.706C22.562 18.9111 22.4511 19.0866 22.2852 19.2013C22.1205 19.3146 21.9202 19.3552 21.7188 19.3192L20.7783 19.1444C20.7635 19.1677 20.7483 19.19 20.733 19.2109L20.7097 19.2483L21.2696 20.0718C21.379 20.2207 21.4257 20.4187 21.3927 20.6183C21.3596 20.8197 21.2458 21.0019 21.0796 21.1184L19.2658 22.3934C19.1206 22.5043 18.9184 22.5539 18.7217 22.5217C18.5192 22.4883 18.3366 22.3719 18.2205 22.2016L17.6664 21.3861C17.6421 21.391 17.6184 21.3955 17.5954 21.3999C17.5822 21.4021 17.5691 21.4048 17.5553 21.4066L17.3815 22.374C17.3447 22.5789 17.2338 22.7543 17.0683 22.8689C16.9426 22.955 16.796 22.9999 16.6439 22.9999ZM13.8007 19.8396C13.8917 19.8396 13.9822 19.8731 14.0531 19.9387C14.0909 19.9736 14.1344 19.9999 14.1777 20.0285L14.2626 20.0848C14.2998 20.1124 14.3547 20.1497 14.4623 20.1995C14.6155 20.2703 14.7019 20.4357 14.6718 20.602L14.4512 21.8303L16.6368 22.2572L16.8721 21.0137C16.898 20.869 17.0063 20.7541 17.1492 20.7188C17.2255 20.7003 17.3005 20.6902 17.3729 20.6813C17.4032 20.6773 17.4329 20.6739 17.4615 20.6688C17.5064 20.6605 17.6155 20.6402 17.6856 20.6123C17.8481 20.5475 18.0332 20.6042 18.1308 20.7478L18.8345 21.7832L20.653 20.5103L19.9514 19.453C19.8558 19.3121 19.8679 19.1241 19.9819 18.9971C20.0165 18.9585 20.0424 18.914 20.0706 18.8696L20.1262 18.7835C20.1532 18.7461 20.1903 18.6892 20.2405 18.5783C20.3103 18.4225 20.4753 18.3358 20.6466 18.3653L21.8545 18.5894L22.26 16.3978C22.2566 16.3599 22.2406 16.3373 22.2336 16.3358L21.0258 16.1118C20.8816 16.085 20.7665 15.9756 20.7327 15.8325C20.7142 15.7557 20.705 15.6807 20.6961 15.6088C20.693 15.5823 20.6901 15.556 20.6863 15.5312C20.6763 15.493 20.6675 15.453 20.6593 15.4117C20.6504 15.3695 20.643 15.3253 20.6278 15.2856C20.5651 15.1264 20.62 14.9454 20.7595 14.8467L21.7782 14.1309L20.5372 12.2666L19.5145 12.9815C19.3709 13.0821 19.1772 13.069 19.0488 12.95C19.0111 12.9151 18.9677 12.8888 18.9242 12.8602L18.8392 12.8039C18.8021 12.7763 18.7469 12.7385 18.6396 12.6892C18.4862 12.6191 18.3996 12.4528 18.4297 12.2867L18.6509 11.0584L16.4758 10.6333L16.2407 11.8768C16.2148 12.0208 16.1068 12.136 15.965 12.1713C15.8882 12.1902 15.8137 12.2003 15.7413 12.2092C15.7161 12.2124 15.6913 12.2155 15.6675 12.2191C15.6293 12.2293 15.5893 12.2385 15.5489 12.247C15.5083 12.2555 15.4661 12.263 15.429 12.2778C15.2672 12.345 15.081 12.2878 14.9823 12.1431L14.2786 11.1077L12.4601 12.3802L13.1617 13.4375C13.2577 13.5788 13.245 13.7673 13.1305 13.8941C13.0963 13.9323 13.0708 13.9762 13.0429 14.0202L12.9869 14.1071C12.9599 14.1444 12.9228 14.2013 12.8726 14.3122C12.8029 14.468 12.6389 14.5547 12.4665 14.5252L11.2585 14.3011L10.8471 16.5269L12.045 16.7709C12.189 16.7977 12.3036 16.9068 12.3381 17.0492C12.3565 17.1267 12.3663 17.202 12.3752 17.2747C12.3788 17.3058 12.3826 17.3363 12.3873 17.3656C12.3951 17.4098 12.4149 17.5228 12.4435 17.5967C12.5054 17.7543 12.4524 17.9337 12.3151 18.0326L11.3175 18.7524L12.5643 20.6201L13.5879 19.9064C13.652 19.8619 13.7267 19.8396 13.8007 19.8396Z" fill="white"/>
</g>
</g>
</svg>
