<svg width="24" height="24" viewBox="0 0 24 24" fill="none" xmlns="http://www.w3.org/2000/svg">
<g id="g4683">
<g id="g4685">
<g id="Clip path group">
<mask id="mask0_858_553" style="mask-type:luminance" maskUnits="userSpaceOnUse" x="0" y="0" width="24" height="24">
<g id="clipPath4691">
<path id="path4689" d="M0 0H24V24H0V0Z" fill="white"/>
</g>
</mask>
<g mask="url(#mask0_858_553)">
<g id="g4687">
<g id="g4693">
<path id="path4695" d="M3.96517 12.859C3.96517 13.4593 3.47847 13.946 2.87809 13.946C2.27772 13.946 1.79102 13.4593 1.79102 12.859C1.79102 12.2585 2.27772 11.7719 2.87809 11.7719C3.47847 11.7719 3.96517 12.2585 3.96517 12.859Z" stroke="white" stroke-width="0.9" stroke-miterlimit="10" stroke-linecap="round" stroke-linejoin="round"/>
</g>
<g id="g4697">
<path id="path4699" d="M8.52577 10.575C8.52577 11.1755 8.03902 11.6621 7.43869 11.6621C6.83827 11.6621 6.35156 11.1755 6.35156 10.575C6.35156 9.97466 6.83827 9.48795 7.43869 9.48795C8.03902 9.48795 8.52577 9.97466 8.52577 10.575Z" stroke="white" stroke-width="0.9" stroke-miterlimit="10" stroke-linecap="round" stroke-linejoin="round"/>
</g>
<g id="g4701">
<path id="path4703" d="M13.0863 6.00667C13.0863 6.60705 12.5996 7.09375 11.9992 7.09375C11.3988 7.09375 10.9121 6.60705 10.9121 6.00667C10.9121 5.40625 11.3988 4.91959 11.9992 4.91959C12.5996 4.91959 13.0863 5.40625 13.0863 6.00667Z" stroke="white" stroke-width="0.9" stroke-miterlimit="10" stroke-linecap="round" stroke-linejoin="round"/>
</g>
<g id="g4705">
<path id="path4707" d="M17.6488 8.29085C17.6488 8.89127 17.1621 9.37793 16.5617 9.37793C15.9614 9.37793 15.4746 8.89127 15.4746 8.29085C15.4746 7.69043 15.9614 7.20377 16.5617 7.20377C17.1621 7.20377 17.6488 7.69043 17.6488 8.29085Z" stroke="white" stroke-width="0.9" stroke-miterlimit="10" stroke-linecap="round" stroke-linejoin="round"/>
</g>
<g id="g4709">
<path id="path4711" d="M22.2074 1.43856C22.2074 2.03898 21.7207 2.52563 21.1203 2.52563C20.5199 2.52563 20.0332 2.03898 20.0332 1.43856C20.0332 0.838135 20.5199 0.351478 21.1203 0.351478C21.7207 0.351478 22.2074 0.838135 22.2074 1.43856Z" stroke="white" stroke-width="0.9" stroke-miterlimit="10" stroke-linecap="round" stroke-linejoin="round"/>
</g>
<g id="g4713">
<path id="path4715" d="M17.1621 7.38599L20.518 2.34369" stroke="white" stroke-width="0.9" stroke-miterlimit="10" stroke-linecap="round" stroke-linejoin="round"/>
</g>
<g id="g4717">
<path id="path4719" d="M12.9707 6.49352L15.5871 7.80396" stroke="white" stroke-width="0.9" stroke-miterlimit="10" stroke-linecap="round" stroke-linejoin="round"/>
</g>
<g id="g4721">
<path id="path4723" d="M8.20898 9.80566L11.2334 6.77618" stroke="white" stroke-width="0.9" stroke-miterlimit="10" stroke-linecap="round" stroke-linejoin="round"/>
</g>
<g id="g4725">
<path id="path4727" d="M3.85156 12.3721L6.46803 11.0616" stroke="white" stroke-width="0.9" stroke-miterlimit="10" stroke-linecap="round" stroke-linejoin="round"/>
</g>
<g id="g4729">
<path id="path4731" d="M4.05369 16.8829H1.7022C1.53983 16.8829 1.4082 17.0145 1.4082 17.1768V23.6484H4.34764V17.1768C4.34764 17.0145 4.21606 16.8829 4.05369 16.8829Z" stroke="white" stroke-width="0.9" stroke-miterlimit="10" stroke-linecap="round" stroke-linejoin="round"/>
</g>
<g id="g4733">
<path id="path4735" d="M8.61423 14.5987H6.2628C6.10042 14.5987 5.96875 14.7304 5.96875 14.8927V23.6484H8.90823V14.8927C8.90823 14.7304 8.77661 14.5987 8.61423 14.5987Z" stroke="white" stroke-width="0.9" stroke-miterlimit="10" stroke-linecap="round" stroke-linejoin="round"/>
</g>
<g id="g4737">
<path id="path4739" d="M13.1767 10.0108H10.8253C10.6629 10.0108 10.5312 10.1424 10.5312 10.3047V23.6484H13.4707V10.3047C13.4707 10.1424 13.3391 10.0108 13.1767 10.0108Z" stroke="white" stroke-width="0.9" stroke-miterlimit="10" stroke-linecap="round" stroke-linejoin="round"/>
</g>
<g id="g4741">
<path id="path4743" d="M0.623047 23.6484H23.3774" stroke="white" stroke-width="0.9" stroke-miterlimit="10" stroke-linecap="round" stroke-linejoin="round"/>
</g>
<g id="g4745">
<path id="path4747" d="M15.7412 12.3147H15.3858C15.2234 12.3147 15.0918 12.4464 15.0918 12.6087V23.6484H18.0312V12.6087C18.0312 12.4464 17.8996 12.3147 17.7372 12.3147H17.3818" stroke="white" stroke-width="0.9" stroke-miterlimit="10" stroke-linecap="round" stroke-linejoin="round"/>
</g>
<g id="g4749">
<path id="path4751" d="M22.5898 13.9309V5.72442C22.5898 5.56205 22.4582 5.43038 22.2959 5.43038H19.9444C19.782 5.43038 19.6504 5.56205 19.6504 5.72442V23.6484H22.5898V15.5715" stroke="white" stroke-width="0.9" stroke-miterlimit="10" stroke-linecap="round" stroke-linejoin="round"/>
</g>
</g>
</g>
</g>
</g>
</g>
</svg>
