<svg width="20" height="20" viewBox="0 0 20 20" fill="none" xmlns="http://www.w3.org/2000/svg">
<g id="Zoom In" clip-path="url(#clip0_961_291)">
<path id="Vector" d="M15 0H5C3.67392 0 2.40215 0.526784 1.46447 1.46447C0.526784 2.40215 0 3.67392 0 5L0 15C0 16.3261 0.526784 17.5979 1.46447 18.5355C2.40215 19.4732 3.67392 20 5 20H15C16.3261 20 17.5979 19.4732 18.5355 18.5355C19.4732 17.5979 20 16.3261 20 15V5C20 3.67392 19.4732 2.40215 18.5355 1.46447C17.5979 0.526784 16.3261 0 15 0ZM19.0625 15C19.0613 16.0771 18.6328 17.1097 17.8713 17.8713C17.1097 18.6328 16.0771 19.0613 15 19.0625H5C3.92294 19.0613 2.89035 18.6328 2.12875 17.8713C1.36715 17.1097 0.938741 16.0771 0.9375 15V5C0.938741 3.92294 1.36715 2.89035 2.12875 2.12875C2.89035 1.36715 3.92294 0.938741 5 0.9375H15C16.0771 0.938741 17.1097 1.36715 17.8713 2.12875C18.6328 2.89035 19.0613 3.92294 19.0625 5V15Z" fill="#313193"/>
<path id="Vector_2" d="M6.02633 11.3528H7.98508L4.65039 14.6875L5.3132 15.3503L8.64789 12.0156V13.9743H9.58539V10.4153H6.02633V11.3528Z" fill="white"/>
<path id="Vector_3" d="M11.3535 7.98435V6.0256H10.416V9.58466H13.9751V8.64716H12.0163L15.351 5.31247L14.6882 4.64966L11.3535 7.98435Z" fill="white"/>
</g>
<defs>
<clipPath id="clip0_961_291">
<rect width="20" height="20" fill="white"/>
</clipPath>
</defs>
</svg>
