<svg width="20" height="20" viewBox="0 0 20 20" fill="none" xmlns="http://www.w3.org/2000/svg">
<g id="Zoom Out" clip-path="url(#clip0_961_286)">
<path id="Vector" d="M15 0H5C3.67392 0 2.40215 0.526784 1.46447 1.46447C0.526784 2.40215 0 3.67392 0 5L0 15C0 16.3261 0.526784 17.5979 1.46447 18.5355C2.40215 19.4732 3.67392 20 5 20H15C16.3261 20 17.5979 19.4732 18.5355 18.5355C19.4732 17.5979 20 16.3261 20 15V5C20 3.67392 19.4732 2.40215 18.5355 1.46447C17.5979 0.526784 16.3261 0 15 0ZM19.0625 15C19.0613 16.0771 18.6328 17.1097 17.8713 17.8713C17.1097 18.6328 16.0771 19.0613 15 19.0625H5C3.92294 19.0613 2.89035 18.6328 2.12875 17.8713C1.36715 17.1097 0.938741 16.0771 0.9375 15V5C0.938741 3.92294 1.36715 2.89035 2.12875 2.12875C2.89035 1.36715 3.92294 0.938741 5 0.9375H15C16.0771 0.938741 17.1097 1.36715 17.8713 2.12875C18.6328 2.89035 19.0613 3.92294 19.0625 5V15Z" fill="#313193"/>
<path id="Vector_2" d="M5.65945 12.4187H7.09592L4.65039 14.8643L5.13647 15.3503L7.582 12.9048V14.3413H8.26953V11.7312H5.65945V12.4187Z" fill="white"/>
<path id="Vector_3" d="M12.4262 7.08958V5.6564H11.7402V8.2605H14.3443V7.57455H12.9112L15.3511 5.13462L14.8661 4.64966L12.4262 7.08958Z" fill="white"/>
</g>
<defs>
<clipPath id="clip0_961_286">
<rect width="20" height="20" fill="white"/>
</clipPath>
</defs>
</svg>
