<svg width="21" height="22" viewBox="0 0 21 22" fill="none" xmlns="http://www.w3.org/2000/svg">
<g id="fraud-detection">
<path id="Vector" d="M16.0781 9.03125C15.8977 9.03125 15.75 9.17891 15.75 9.35938V12.6406C15.75 13.182 15.307 13.625 14.7656 13.625H11.8125C11.632 13.625 11.4844 13.7727 11.4844 13.9531C11.4844 14.1336 11.632 14.2812 11.8125 14.2812H14.7656C15.6712 14.2812 16.4062 13.5462 16.4062 12.6406V9.35938C16.4062 9.17891 16.2586 9.03125 16.0781 9.03125Z" fill="white"/>
<path id="Vector_2" d="M10.8281 15.6266V13.2969C10.8281 12.0303 9.79781 11 8.53125 11C8.35078 11 8.20312 11.1477 8.20312 11.3281C8.20312 11.5086 8.35078 11.6562 8.53125 11.6562C9.43688 11.6562 10.1719 12.3912 10.1719 13.2969V15.5938H6.89062V14.2812H9.1875C9.36797 14.2812 9.51562 14.1336 9.51562 13.9531C9.51562 13.7727 9.36797 13.625 9.1875 13.625H2.29688C1.75547 13.625 1.3125 13.182 1.3125 12.6406V8.375H13.4531C13.6336 8.375 13.7812 8.22734 13.7812 8.04688C13.7812 7.86641 13.6336 7.71875 13.4531 7.71875H1.3125V5.75H12.1406C12.3211 5.75 12.4688 5.60234 12.4688 5.42188C12.4688 5.24141 12.3211 5.09375 12.1406 5.09375H1.3125V4.76562C1.3125 4.22422 1.75547 3.78125 2.29688 3.78125H12.1406C12.3211 3.78125 12.4688 3.63359 12.4688 3.45312C12.4688 3.27266 12.3211 3.125 12.1406 3.125H2.29688C1.39125 3.125 0.65625 3.86 0.65625 4.76562V12.6406C0.65625 13.5463 1.39125 14.2812 2.29688 14.2812H6.23438V15.6266C5.48625 15.7775 4.92188 16.4403 4.92188 17.2344V19.2031C4.92188 20.1087 5.65688 20.8438 6.5625 20.8438H10.5C11.4056 20.8438 12.1406 20.1087 12.1406 19.2031V17.2344C12.1406 16.4436 11.5763 15.7808 10.8281 15.6266ZM11.4844 19.2031C11.4844 19.7445 11.0414 20.1875 10.5 20.1875H6.5625C6.02109 20.1875 5.57812 19.7445 5.57812 19.2031V17.2344C5.57812 16.693 6.02109 16.25 6.5625 16.25H10.5C11.0414 16.25 11.4844 16.693 11.4844 17.2344V19.2031Z" fill="white"/>
<path id="Vector_3" d="M5.25 11.9844H2.625C2.44453 11.9844 2.29688 12.132 2.29688 12.3125C2.29688 12.493 2.44453 12.6406 2.625 12.6406H5.25C5.43047 12.6406 5.57812 12.493 5.57812 12.3125C5.57812 12.132 5.43047 11.9844 5.25 11.9844Z" fill="white"/>
<path id="Vector_4" d="M9.1875 17.8906H7.875C7.69453 17.8906 7.54688 18.0383 7.54688 18.2188C7.54688 18.3992 7.69453 18.5469 7.875 18.5469H9.1875C9.36797 18.5469 9.51562 18.3992 9.51562 18.2188C9.51562 18.0383 9.36797 17.8906 9.1875 17.8906Z" fill="white"/>
<path id="Vector_5" d="M5.25 10.3438H2.625C2.44453 10.3438 2.29688 10.4914 2.29688 10.6719C2.29688 10.8523 2.44453 11 2.625 11H5.25C5.43047 11 5.57812 10.8523 5.57812 10.6719C5.57812 10.4914 5.43047 10.3438 5.25 10.3438Z" fill="white"/>
<path id="Vector_6" d="M16.7344 1.15625C14.7427 1.15625 13.125 2.77391 13.125 4.76562C13.125 6.75734 14.7427 8.375 16.7344 8.375C18.7261 8.375 20.3438 6.75734 20.3438 4.76562C20.3438 2.77391 18.7261 1.15625 16.7344 1.15625ZM16.7344 7.71875C15.1069 7.71875 13.7812 6.39313 13.7812 4.76562C13.7812 3.13812 15.1069 1.8125 16.7344 1.8125C18.3619 1.8125 19.6875 3.13812 19.6875 4.76562C19.6875 6.39313 18.3619 7.71875 16.7344 7.71875Z" fill="white"/>
<path id="Vector_7" d="M18.138 3.55167L16.1496 5.60245L15.3292 4.74604C15.2046 4.61479 14.9946 4.61151 14.8666 4.7362C14.7353 4.86089 14.7321 5.0676 14.8567 5.19885L15.9133 6.30135C15.9756 6.36698 16.061 6.40307 16.1496 6.40307C16.2381 6.40307 16.3235 6.36698 16.3858 6.30464L18.6105 4.00776C18.7352 3.87651 18.7319 3.66979 18.6039 3.5451C18.4727 3.42042 18.266 3.42042 18.1413 3.55167H18.138Z" fill="white"/>
</g>
</svg>
