<svg width="20" height="20" viewBox="0 0 20 20" fill="none" xmlns="http://www.w3.org/2000/svg">
<path d="M7.22461 6.27828C7.48205 3.28864 9.01839 2.06787 12.3817 2.06787H12.4897C16.2018 2.06787 17.6883 3.55438 17.6883 7.26652V12.6811C17.6883 16.3932 16.2018 17.8797 12.4897 17.8797H12.3817C9.0433 17.8797 7.50696 16.6756 7.23291 13.7358" fill="#D6D6E5"/>
<path d="M7.39062 6.27827C7.64807 3.28864 9.18441 2.06787 12.5477 2.06787H12.6557C16.3678 2.06787 17.8544 3.55438 17.8544 7.26652V12.6811C17.8544 16.3932 16.3678 17.8797 12.6557 17.8797H12.5477C9.20932 17.8797 7.67298 16.6756 7.39893 13.7358" stroke="#313193" stroke-width="1.5" stroke-linecap="round" stroke-linejoin="round"/>
<path d="M12.4564 9.96533H3.00586" stroke="#313193" stroke-width="1.5" stroke-linecap="round" stroke-linejoin="round"/>
<path d="M4.85819 7.18335L2.07617 9.96537L4.85819 12.7474" stroke="#313193" stroke-width="1.5" stroke-linecap="round" stroke-linejoin="round"/>
</svg>
