<svg width="29" height="29" viewBox="0 0 29 29" fill="none" xmlns="http://www.w3.org/2000/svg">
<path d="M18.1243 22.9583V20.5416C18.1243 19.9007 18.379 19.286 18.8322 18.8328C19.2854 18.3796 19.9001 18.125 20.541 18.125H22.9577M18.1243 6.04163V8.45829C18.1243 9.09923 18.379 9.71392 18.8322 10.1671C19.2854 10.6203 19.9001 10.875 20.541 10.875H22.9577M6.04102 18.125H8.45768C9.09862 18.125 9.71331 18.3796 10.1665 18.8328C10.6197 19.286 10.8743 19.9007 10.8743 20.5416V22.9583M6.04102 10.875H8.45768C9.09862 10.875 9.71331 10.6203 10.1665 10.1671C10.6197 9.71392 10.8743 9.09923 10.8743 8.45829V6.04163" stroke="white" stroke-width="2" stroke-linecap="round" stroke-linejoin="round"/>
</svg>
