<svg width="19" height="20" viewBox="0 0 19 20" fill="none" xmlns="http://www.w3.org/2000/svg">
<g id="Outline">
<path id="Vector" d="M6.01626 6.8333C6.64256 6.8333 7.2548 6.64758 7.77555 6.29962C8.29631 5.95167 8.70218 5.4571 8.94186 4.87848C9.18154 4.29985 9.24425 3.66314 9.12206 3.04887C8.99988 2.4346 8.69828 1.87036 8.25542 1.42749C7.81255 0.984628 7.24831 0.683034 6.63404 0.560848C6.01977 0.438662 5.38306 0.501372 4.80443 0.741048C4.22581 0.980724 3.73124 1.3866 3.38329 1.90735C3.03533 2.42811 2.84961 3.04035 2.84961 3.66665C2.85053 4.50622 3.18446 5.31113 3.77812 5.90479C4.37178 6.49845 5.17669 6.83238 6.01626 6.8333ZM6.01626 1.13333C6.5173 1.13333 7.00709 1.28191 7.4237 1.56027C7.8403 1.83864 8.165 2.23429 8.35674 2.69719C8.54848 3.16009 8.59865 3.66946 8.5009 4.16088C8.40315 4.65229 8.16188 5.10369 7.80759 5.45798C7.45329 5.81227 7.0019 6.05354 6.51048 6.15129C6.01907 6.24904 5.5097 6.19887 5.0468 6.00713C4.5839 5.81539 4.18825 5.49069 3.90988 5.07409C3.63152 4.65749 3.48294 4.16769 3.48294 3.66665C3.48369 2.995 3.75084 2.35108 4.22576 1.87616C4.70069 1.40123 5.34461 1.13409 6.01626 1.13333Z" fill="white"/>
<path id="Vector_2" d="M6.3345 9.05005H5.70117V9.68338H6.3345V9.05005Z" fill="white"/>
<path id="Vector_3" d="M18.7173 9.05187C17.3169 8.90005 15.9584 8.48206 14.715 7.82036C14.6691 7.79596 14.618 7.7832 14.5661 7.7832C14.5142 7.7832 14.4631 7.79596 14.4173 7.82036C13.1738 8.48206 11.8153 8.90005 10.415 9.05187C10.3374 9.06037 10.2657 9.0972 10.2137 9.15528C10.1616 9.21337 10.1328 9.28863 10.1328 9.36663V13.1175C10.1415 14.485 10.5558 15.8192 11.3233 16.951C12.0908 18.0829 13.177 18.9615 14.4442 19.4755C14.4828 19.4916 14.5243 19.4999 14.5661 19.4999C14.608 19.4999 14.6494 19.4916 14.688 19.4755C15.9553 18.9615 17.0414 18.0829 17.8089 16.951C18.5765 15.8192 18.9908 14.485 18.9994 13.1175V9.36663C18.9994 9.28863 18.9706 9.21337 18.9186 9.15528C18.8665 9.0972 18.7948 9.06037 18.7173 9.05187ZM18.3661 13.1175C18.3578 14.3374 17.9938 15.5284 17.3189 16.5445C16.644 17.5607 15.6873 18.358 14.5661 18.8387C13.4449 18.358 12.4883 17.5607 11.8133 16.5445C11.1384 15.5284 10.7745 14.3374 10.7661 13.1175V9.64688C12.0915 9.47085 13.3769 9.06854 14.5661 8.45749C15.7553 9.06859 17.0407 9.4709 18.3661 9.64688V13.1175Z" fill="white"/>
<path id="Vector_4" d="M11.9119 12.9132L11.4629 13.3619L13.3629 15.2619C13.4223 15.3212 13.5028 15.3546 13.5868 15.3546C13.6707 15.3546 13.7513 15.3212 13.8106 15.2619L17.6106 11.4619L17.1629 11.0132L13.588 14.5915L11.9119 12.9132Z" fill="white"/>
<path id="Vector_5" d="M7.91662 12.2166H6.47485L4.10683 7.66291C4.76871 7.97261 5.49602 8.11657 6.22598 8.08236C6.95593 8.04816 7.6666 7.83682 8.29662 7.46658H8.86662C9.22648 7.46729 9.58202 7.54506 9.90932 7.69467C10.2366 7.84428 10.5281 8.06226 10.7641 8.33393C11.0013 8.29783 11.2359 8.25223 11.4687 8.20029C11.178 7.77877 10.7894 7.43413 10.3362 7.19601C9.88291 6.95788 9.37861 6.8334 8.86662 6.83325H8.20795C8.14813 6.83334 8.08954 6.85024 8.03886 6.88202C7.43105 7.25715 6.73088 7.45582 6.01663 7.45582C5.30239 7.45582 4.60222 7.25715 3.99441 6.88202C3.94373 6.85024 3.88513 6.83334 3.82531 6.83325H3.16665C2.32708 6.83417 1.52217 7.1681 0.928508 7.76176C0.334846 8.35542 0.000922001 9.16034 0 9.9999V13.7999C0.000502819 14.2196 0.167478 14.6221 0.4643 14.9189C0.761122 15.2157 1.16356 15.3827 1.58332 15.3832H2.53332V18.2332H3.16665V15.3832H7.91662C8.33655 15.3832 8.73927 15.2164 9.0362 14.9195C9.33313 14.6225 9.49995 14.2198 9.49995 13.7999C9.49995 13.38 9.33313 12.9772 9.0362 12.6803C8.73927 12.3834 8.33655 12.2166 7.91662 12.2166ZM1.58332 14.7499C1.33137 14.7499 1.08974 14.6498 0.911577 14.4716C0.733418 14.2935 0.63333 14.0518 0.63333 13.7999V9.9999C0.633022 9.40392 0.843952 8.82711 1.22866 8.37193L3.22777 12.2166H2.53332V12.8499H3.5571L4.54509 14.7499H1.58332ZM5.25885 14.7499L1.71221 7.92923C2.13742 7.62813 2.64563 7.46648 3.16665 7.46658H3.2911L7.07841 14.7499H5.25885ZM7.91662 14.7499H7.79217L6.80418 12.8499H7.91662C8.16858 12.8499 8.41021 12.95 8.58837 13.1281C8.76653 13.3063 8.86662 13.5479 8.86662 13.7999C8.86662 14.0518 8.76653 14.2935 8.58837 14.4716C8.41021 14.6498 8.16858 14.7499 7.91662 14.7499Z" fill="white"/>
</g>
</svg>
