<svg width="18" height="18" viewBox="0 0 18 18" fill="none" xmlns="http://www.w3.org/2000/svg">
<path opacity="0.16" d="M1.00586 15.1818C1.00586 14.1072 1.43276 13.0766 2.19265 12.3167C2.95253 11.5568 3.98316 11.1299 5.0578 11.1299H13.1617C14.2363 11.1299 15.2669 11.5568 16.0268 12.3167C16.7867 13.0766 17.2136 14.1072 17.2136 15.1818C17.2136 15.7191 17.0002 16.2345 16.6202 16.6144C16.2403 16.9943 15.725 17.2078 15.1877 17.2078H3.03183C2.49451 17.2078 1.9792 16.9943 1.59925 16.6144C1.21931 16.2345 1.00586 15.7191 1.00586 15.1818Z" fill="#313193"/>
<path d="M1.00586 15.1818C1.00586 14.1072 1.43276 13.0766 2.19265 12.3167C2.95253 11.5568 3.98316 11.1299 5.0578 11.1299H13.1617C14.2363 11.1299 15.2669 11.5568 16.0268 12.3167C16.7867 13.0766 17.2136 14.1072 17.2136 15.1818C17.2136 15.7191 17.0002 16.2345 16.6202 16.6144C16.2403 16.9943 15.725 17.2078 15.1877 17.2078H3.03183C2.49451 17.2078 1.9792 16.9943 1.59925 16.6144C1.21931 16.2345 1.00586 15.7191 1.00586 15.1818Z" stroke="#313193" stroke-width="1.5" stroke-linejoin="round"/>
<path d="M9.10927 7.07791C10.7876 7.07791 12.1482 5.71732 12.1482 4.03896C12.1482 2.36059 10.7876 1 9.10927 1C7.4309 1 6.07031 2.36059 6.07031 4.03896C6.07031 5.71732 7.4309 7.07791 9.10927 7.07791Z" stroke="#313193" stroke-width="1.5"/>
</svg>
