<svg width="22" height="22" viewBox="0 0 22 22" fill="none" xmlns="http://www.w3.org/2000/svg">
<rect x="7.65625" y="10.592" width="6.65299" height="4.41974" fill="#D6D6E5"/>
<path d="M9.39294 20.3337C4.92892 19.5702 1.53125 15.6818 1.53125 11.0001C1.53125 6.31839 4.92892 2.42997 9.39294 1.6665" stroke="#313193" stroke-miterlimit="10" stroke-linecap="round" stroke-linejoin="round"/>
<path d="M9.39293 1.6665L8.42188 3.39007" stroke="#313193" stroke-miterlimit="10" stroke-linecap="round" stroke-linejoin="round"/>
<path d="M9.39309 1.66641L7.69922 0.644531" stroke="#313193" stroke-miterlimit="10" stroke-linecap="round" stroke-linejoin="round"/>
<path d="M12.6094 1.6665C17.0734 2.42997 20.4711 6.31839 20.4711 11.0001C20.4711 15.6818 17.0734 19.5702 12.6094 20.3337" stroke="#313193" stroke-miterlimit="10" stroke-linecap="round" stroke-linejoin="round"/>
<path d="M12.6094 20.3337L13.5804 18.6101" stroke="#313193" stroke-miterlimit="10" stroke-linecap="round" stroke-linejoin="round"/>
<path d="M12.6094 20.3337L14.3032 21.3556" stroke="#313193" stroke-miterlimit="10" stroke-linecap="round" stroke-linejoin="round"/>
<path d="M14.1844 16.0274H7.81687C7.19421 16.0274 6.68945 15.5227 6.68945 14.9V10.8279C6.68945 10.2052 7.19421 9.70044 7.81687 9.70044H14.1844C14.8071 9.70044 15.3119 10.2052 15.3119 10.8279V14.9C15.3118 15.5227 14.8071 16.0274 14.1844 16.0274Z" stroke="#313193" stroke-miterlimit="10" stroke-linecap="round" stroke-linejoin="round"/>
<path d="M14.3086 9.70037V8.67969C14.3086 6.8524 12.8273 5.37109 11 5.37109C9.17271 5.37109 7.69141 6.8524 7.69141 8.67969V9.70037" stroke="#313193" stroke-miterlimit="10" stroke-linecap="round" stroke-linejoin="round"/>
<path d="M11 12.418V13.3097" stroke="#313193" stroke-miterlimit="10" stroke-linecap="round" stroke-linejoin="round"/>
</svg>
